<svg xmlns="http://www.w3.org/2000/svg" width="32" height="32"><path d="M0 0h32v32H0z" fill="#2e3436"/><path d="M22.865 27.997a8.35 8.35 0 0 0 2.689-1.578 2.67 2.67 0 0 0 2.434 1.578zM19.999 3.994h-7.998c-4.418 0-8.007 3.589-8.007 8.007v3.377c1.102-3.069 3.871-5.238 7.116-5.582a23.76 23.76 0 0 1 .6-4.594.501.501 0 0 1 .397-.379c.273-.044.529.132.582.406a8.1 8.1 0 0 0 1.94 3.986 2.15 2.15 0 0 1 .344.538h.476a7.35 7.35 0 0 1 2.584-4.815.49.49 0 0 1 .406-.106c.273.053.45.309.406.582-.265 1.481-.106 3.016.459 4.409a1.23 1.23 0 0 1 .079.256 4.5 4.5 0 0 1 2.848 4.188v2.628a2.5 2.5 0 0 1-2.495 2.495h-6.878c-.141 0-.247-.115-.247-.247 0-.141.115-.247.247-.247h6.878c1.102 0 2.002-.899 2.002-2.002v-2.628c0-2.204-1.79-4.003-3.994-4.003h-5.749a8 8 0 0 0-7.998 7.998v1.746a8 8 0 0 0 7.998 7.998h7.998a8 8 0 0 0 7.998-7.998V12.01c.009-4.427-3.571-8.015-7.989-8.015zm-6.878 10.564c0-1.19.97-2.152 2.16-2.152s2.152.97 2.152 2.16-.97 2.152-2.16 2.152c-1.182 0-2.152-.97-2.152-2.16z" fill="#eceeee"/><path d="M14.258 9.55c-1.067-1.19-1.781-2.654-2.063-4.233-.397 1.719-.6 3.483-.6 5.255a1.526 1.526 0 0 0 1.525 1.525 1.526 1.526 0 0 0 1.525-1.525 1.52 1.52 0 0 0-.388-1.023zm4.541.326c-.556-1.455-.714-3.025-.441-4.559a6.85 6.85 0 0 0-2.398 4.435h1.79c.353 0 .705.035 1.049.123z" fill="#8ae234"/></svg>
