<svg xmlns="http://www.w3.org/2000/svg" width="450" height="512"><path fill="#eceeee" d="M65.652 96.043c-13.655-.248-26.47 8.221-31.102 21.709l-4.301 12.801c-8.5 24.9-21.7 63.6-25.6 87.6v.195.004a313.4 313.4 0 0 0-2.166 16.664 291.57 291.57 0 0 0-1.223 16.498c-.247 5.464-.33 10.881-.246 16.24s.335 10.665.76 15.895a219.25 219.25 0 0 0 1.801 15.463 201.28 201.28 0 0 0 1.301 7.543 190.31 190.31 0 0 0 1.572 7.402 179.98 179.98 0 0 0 1.852 7.252 170.21 170.21 0 0 0 2.129 7.09c1.515 4.671 3.221 9.228 5.121 13.654 15.6 36.5 44.799 64.499 87.299 71.799 24.3 4.2 46.501 2.2 66.301-6.6 19.6-8.7 34.2-22.9 45.1-38.6 20.1-28.9 31.399-68.2 40.699-100.9.2-1 .501-1.9.801-2.9 10.4-36.6 19.1-65.7 32.5-84.9 6.2-8.8 12.3-13.899 18.6-16.699 6.2-2.7 15.3-4.4 29.4-2 6.57 1.12 12.524 3.331 17.857 6.703 8.909 5.659 16.073 14.543 21.443 27.094 2.096 4.917 3.845 10.39 5.279 16.289.102.421.236.797.334 1.223 4.43 19.219 5.162 43.388.887 70.988-2.9 18-13.502 48.998-22.102 74.398l-5.398 15.9c-5.5 16.8 3.499 35 20.299 40.5s34.9-3.5 40.6-20.1l4.301-12.801c8.5-24.9 21.7-63.6 25.6-87.6v-.195a314.06 314.06 0 0 0 2.166-16.668 291.56 291.56 0 0 0 1.223-16.498c.247-5.464.33-10.881.246-16.24a243.16 243.16 0 0 0-.76-15.895 219.25 219.25 0 0 0-1.801-15.463c-.388-2.539-.822-5.053-1.301-7.543s-1.002-4.961-1.572-7.402a179.98 179.98 0 0 0-1.852-7.252 170.22 170.22 0 0 0-2.129-7.09c-1.515-4.671-3.221-9.228-5.121-13.654-15.6-36.5-44.799-64.499-87.299-71.799-24.3-4.2-46.501-2.2-66.301 6.6-19.6 8.7-34.2 22.9-45.1 38.6-20.1 28.9-31.399 68.2-40.699 100.9-.2 1-.501 1.9-.801 2.9-10.4 36.6-19.1 65.7-32.5 84.9-6.2 8.8-12.3 13.899-18.6 16.699-6.2 2.7-15.3 4.4-29.4 2-6.57-1.12-12.524-3.331-17.857-6.703-8.909-5.659-16.073-14.543-21.443-27.094-2.096-4.917-3.845-10.39-5.279-16.289-.102-.421-.235-.797-.334-1.223-4.43-19.219-5.162-43.388-.887-70.988 2.9-18 13.502-48.998 22.102-74.398l5.398-15.9c5.5-16.8-3.499-35-20.299-40.5a32.38 32.38 0 0 0-9.498-1.609z"/></svg>
