<svg xmlns="http://www.w3.org/2000/svg" xmlns:xlink="http://www.w3.org/1999/xlink" viewBox="0 0 1046.9 309.6"><defs><path id="A" d="M0 0h307.2v307.2H0z"/></defs><clipPath id="B"><use xlink:href="#A"/></clipPath><g clip-path="url(#B)"><defs><path id="C" d="M0 0h307.2v307.2H0z"/></defs><clipPath id="D"><use xlink:href="#C"/></clipPath><path d="M268.8 0H38.4C17.2 0 0 17.2 0 38.4v230.4c0 21.2 17.2 38.4 38.4 38.4h230.4c21.2 0 38.4-17.2 38.4-38.4V38.4C307.2 17.2 290 0 268.8 0h0" clip-path="url(#D)" fill="#2e3436"/><g fill="#eceeee"><path d="M219.5 268.8c9.5-3.4 18.2-8.5 25.9-15.1 4.1 9.2 13.3 15.1 23.4 15.1h-49.3zM192 38.4h-76.8c-42.4 0-76.8 34.4-76.8 76.8v32.4C49 118.1 75.5 97.3 106.7 94c.5-14.9 2.4-29.6 5.7-44.1.4-1.9 1.9-3.3 3.8-3.6 2.6-.5 5.1 1.3 5.6 3.9 2.5 14.2 9 27.5 18.6 38.3 1.4 1.5 2.5 3.3 3.3 5.1h4.6c2-18 10.9-34.6 24.8-46.3 1.1-.9 2.5-1.3 3.9-1 2.6.5 4.4 3 3.9 5.6-2.5 14.2-1 28.9 4.4 42.3.3.8.6 1.6.8 2.4 16.5 6.5 27.4 22.4 27.4 40.2V162c0 13.2-10.7 24-24 24h-66c-1.3 0-2.4-1.1-2.4-2.4s1.1-2.4 2.4-2.4h66c10.6 0 19.2-8.6 19.2-19.2v-25.2c0-21.2-17.2-38.4-38.4-38.4h-55.2c-42.4 0-76.8 34.4-76.8 76.8V192c0 42.4 34.4 76.8 76.8 76.8H192c42.4 0 76.8-34.4 76.8-76.8v-76.8c0-42.4-34.4-76.8-76.8-76.8m-66 101.4c0-11.4 9.3-20.7 20.7-20.7s20.7 9.3 20.7 20.7h0c0 11.4-9.3 20.7-20.7 20.7-11.5 0-20.7-9.3-20.7-20.7h0z" clip-path="url(#D)"/></g><g fill="#8ae234"><path d="M136.9 91.6c-10.3-11.4-17.1-25.5-19.8-40.6-3.8 16.5-5.7 33.4-5.7 50.4 0 8.1 6.6 14.6 14.6 14.6 8.1 0 14.6-6.6 14.6-14.6 0-3.6-1.3-7.1-3.7-9.8m43.6 3.2c-5.4-13.9-6.8-29.1-4.2-43.8-12.8 10.7-21.1 26-23.1 42.6h17.2c3.4 0 6.8.4 10.1 1.2" clip-path="url(#D)"/></g></g><path d="M393.5 308.7c-5.9 0-10.8-1-14.9-3s-7.4-4.6-9.9-7.7v5.1c0 1.1-.4 2-1.2 2.8s-1.7 1.2-2.8 1.2h-18.1c-1.2 0-2.1-.4-2.9-1.2-.7-.8-1.1-1.7-1.1-2.8V197.5a4.17 4.17 0 0 1 1.1-2.9c.7-.7 1.7-1.1 2.9-1.1h19.5a4.17 4.17 0 0 1 2.9 1.1c.7.7 1.1 1.7 1.1 2.9v34.2c2.7-2.8 5.9-5 9.8-6.8 3.8-1.8 8.4-2.6 13.6-2.6 5.3 0 10.1.9 14.2 2.6 4.1 1.8 7.6 4.3 10.5 7.5 2.9 3.3 5.1 7.2 6.7 11.8s2.5 9.8 2.7 15.4c.1 2.1.2 4 .2 5.7s-.1 3.5-.2 5.7c-.2 6-1.1 11.3-2.7 15.9s-3.9 8.6-6.8 11.8c-2.9 3.3-6.4 5.7-10.5 7.4-4.1 1.8-8.8 2.6-14.1 2.6zm-8.6-21.4c3.6 0 6.5-.7 8.5-2.2s3.5-3.5 4.4-6.1 1.5-5.4 1.7-8.5a81.75 81.75 0 0 0 0-9.9c-.2-3.1-.8-5.9-1.7-8.5s-2.4-4.6-4.4-6.1-4.9-2.2-8.5-2.2c-3.3 0-6 .7-8.2 2.2-2.1 1.4-3.7 3.3-4.8 5.6s-1.7 4.8-1.8 7.4c-.1 2-.2 4-.2 5.9s.1 3.9.2 6.1c.2 2.9.8 5.5 1.8 8s2.5 4.5 4.6 6c2.2 1.5 5 2.3 8.4 2.3zm83.6 21.4c-5.8 0-10.9-1.1-15.4-3.3s-8.1-5.1-10.8-8.9c-2.7-3.7-4-7.9-4-12.6 0-7.6 3.1-13.6 9.3-18s14.4-7.4 24.6-9l20-3v-2.2c0-3.8-.8-6.8-2.4-8.8s-4.5-3-8.8-3c-3 0-5.4.6-7.3 1.8s-3.3 2.8-4.4 4.8c-1 1.4-2.3 2.1-4 2.1h-17.9c-1.2 0-2.1-.3-2.7-1s-.9-1.5-.8-2.5c0-1.9.7-4.1 2.2-6.6 1.4-2.5 3.7-5 6.6-7.4 3-2.5 6.8-4.5 11.5-6.1s10.4-2.4 17.1-2.4c6.8 0 12.7.8 17.6 2.4s8.9 3.8 12 6.7 5.4 6.3 6.8 10.2 2.2 8.2 2.2 12.9v48.6c0 1.1-.4 2-1.2 2.8s-1.7 1.2-2.8 1.2h-18.6c-1.2 0-2.1-.4-2.9-1.2-.7-.8-1.1-1.7-1.1-2.8v-5.6c-1.4 2-3.3 3.9-5.6 5.6s-5.1 3.1-8.2 4.1c-3.1.7-6.8 1.2-11 1.2zm7.6-18.2c3.1 0 5.9-.7 8.4-2s4.5-3.4 5.9-6.2 2.2-6.4 2.2-10.6v-2.2l-13.6 2.4c-5 .9-8.7 2.2-11 3.9-2.3 1.8-3.4 3.8-3.4 6.2 0 1.8.5 3.4 1.6 4.6 1.1 1.3 2.5 2.3 4.2 3 1.7.5 3.6.9 5.7.9zm96.1 18.2c-6.9 0-12.8-.8-17.7-2.3s-8.8-3.4-11.8-5.7c-3-2.2-5.3-4.6-6.8-7s-2.3-4.5-2.4-6.3c-.1-1.2.3-2.1 1.1-2.9.9-.7 1.8-1.1 2.7-1.1h18.2c.3 0 .6.1.9.2s.6.3.9.6c1.4.7 2.8 1.7 4.2 2.8s3 2.1 4.8 3 4 1.3 6.6 1.3c3 0 5.5-.6 7.5-1.8s3-3 3-5.2c0-1.7-.5-3.1-1.4-4.2s-2.9-2.2-5.8-3.3-7.3-2.1-13.2-3.2c-5.5-1.3-10.4-3-14.6-5s-7.4-4.8-9.6-8.2-3.4-7.4-3.4-12.2c0-4.3 1.4-8.4 4.2-12.3s6.8-7.2 12.2-9.7c5.3-2.5 11.9-3.8 19.8-3.8 6.1 0 11.4.7 16 2.2 4.6 1.4 8.4 3.3 11.5 5.5s5.4 4.5 7 6.9c1.6 2.3 2.5 4.5 2.6 6.4a3.28 3.28 0 0 1-1 2.8c-.7.8-1.6 1.2-2.6 1.2h-16.6c-.4 0-.9-.1-1.3-.2-.4-.2-.8-.3-1.1-.6-1.3-.6-2.6-1.5-3.8-2.6-1.3-1.1-2.8-2-4.5-2.9s-3.8-1.3-6.4-1.3c-2.9 0-5.1.6-6.7 1.9s-2.4 2.9-2.4 5c0 1.4.5 2.7 1.4 3.8.9 1.2 2.8 2.2 5.6 3.2s7.2 2 13.2 3.2c7.4 1.2 13.2 3.1 17.6 5.7s7.5 5.7 9.4 9.1c1.9 3.5 2.8 7.1 2.8 11 0 5.1-1.5 9.7-4.6 13.6s-7.6 7-13.5 9.2c-6.1 2.1-13.3 3.2-22 3.2zm58.3-1.6c-1.2 0-2.1-.4-2.9-1.2-.7-.8-1.1-1.7-1.1-2.8V197.5a4.17 4.17 0 0 1 1.1-2.9c.7-.7 1.7-1.1 2.9-1.1H651a4.17 4.17 0 0 1 2.9 1.1c.7.7 1.1 1.7 1.1 2.9v35.7c2.9-3.3 6.4-5.9 10.6-7.9s9.1-3 14.6-3c6.2 0 11.7 1.4 16.6 4.2s8.7 6.8 11.4 12.2c2.8 5.3 4.2 11.9 4.2 19.8v44.6c0 1.1-.4 2-1.1 2.8s-1.7 1.2-2.9 1.2h-20.6c-1.1 0-2-.4-2.8-1.2s-1.2-1.7-1.2-2.8v-43.7c0-5-1.2-8.9-3.6-11.6s-5.9-4.1-10.5-4.1c-4.5 0-8.1 1.4-10.7 4.1-2.7 2.7-4 6.6-4 11.6v43.7c0 1.1-.4 2-1.1 2.8s-1.7 1.2-2.9 1.2h-20.5zm130.5 1.6c-6.1 0-11.5-1.4-16.2-4.2s-8.5-6.9-11.1-12.2c-2.7-5.4-4-12-4-19.8v-44.6a4.17 4.17 0 0 1 1.1-2.9c.7-.7 1.7-1.1 2.9-1.1h20c1.2 0 2.2.4 3 1.1s1.2 1.7 1.2 2.9v43.7c0 10.5 4.6 15.7 13.9 15.7 4.4 0 7.9-1.4 10.5-4.1s3.9-6.6 3.9-11.6v-43.7a4.17 4.17 0 0 1 1.1-2.9c.7-.7 1.7-1.1 2.9-1.1h20a4.17 4.17 0 0 1 2.9 1.1c.7.7 1.1 1.7 1.1 2.9v75.2c0 1.1-.4 2-1.1 2.8s-1.7 1.2-2.9 1.2h-18.6c-1.1 0-2-.4-2.8-1.2s-1.2-1.7-1.2-2.8V297c-2.8 3.8-6.4 6.7-10.8 8.7s-9.7 3-15.8 3zm76-1.6c-1.2 0-2.1-.4-2.9-1.2-.7-.8-1.1-1.7-1.1-2.8v-75.2a4.17 4.17 0 0 1 1.1-2.9c.7-.7 1.7-1.1 2.9-1.1h18.4c1.2 0 2.2.4 3 1.1s1.2 1.7 1.2 2.9v6.1c2.7-3.3 6.2-6.1 10.7-8.3s9.8-3.4 15.8-3.4c6.2 0 11.7 1.4 16.4 4.2s8.5 6.8 11.2 12.2c2.7 5.3 4.1 11.9 4.1 19.8v44.6c0 1.1-.4 2-1.1 2.8s-1.7 1.2-2.9 1.2h-20.2c-1.1 0-2-.4-2.8-1.2s-1.2-1.7-1.2-2.8v-43.7c0-5-1.2-8.9-3.6-11.6s-5.9-4.1-10.6-4.1c-4.4 0-7.9 1.4-10.5 4.1s-3.9 6.6-3.9 11.6v43.7c0 1.1-.4 2-1.2 2.8s-1.7 1.2-2.8 1.2h-20zm102.7-95.2a4.17 4.17 0 0 1-2.9-1.1c-.7-.7-1.1-1.7-1.1-2.9v-14.4c0-1.1.4-2 1.1-2.8s1.7-1.2 2.9-1.2h19.2c1.1 0 2 .4 2.8 1.2s1.2 1.7 1.2 2.8v14.4c0 1.2-.4 2.1-1.2 2.9-.8.7-1.7 1.1-2.8 1.1h-19.2zm.2 95.2c-1.2 0-2.1-.4-2.9-1.2-.7-.8-1.1-1.7-1.1-2.8v-75.2a4.17 4.17 0 0 1 1.1-2.9c.7-.7 1.7-1.1 2.9-1.1h18.9a4.17 4.17 0 0 1 2.9 1.1c.7.7 1.1 1.7 1.1 2.9v75.2c0 1.1-.4 2-1.1 2.8s-1.7 1.2-2.9 1.2h-18.9zm84.3 0c-6.8 0-12.7-1.1-17.7-3.3s-8.8-5.6-11.4-10.2c-2.7-4.6-4-10.6-4-18v-30.7h-12.5c-1.2 0-2.2-.4-3-1.1s-1.2-1.7-1.2-2.9v-13c0-1.2.4-2.1 1.2-2.9.8-.7 1.8-1.1 3-1.1h12.5v-26.4c0-1.2.4-2.1 1.2-2.9.8-.7 1.7-1.1 2.8-1.1h18.6a4.17 4.17 0 0 1 2.9 1.1c.7.7 1.1 1.7 1.1 2.9v26.4h20c1.2 0 2.2.4 3 1.1s1.2 1.7 1.2 2.9v13c0 1.2-.4 2.1-1.2 2.9-.8.7-1.8 1.1-3 1.1h-20v28.5c0 3.6.7 6.5 2.1 8.6s3.7 3.2 7 3.2h12.3a4.17 4.17 0 0 1 2.9 1.1c.7.7 1.1 1.7 1.1 2.9v13.9c0 1.1-.4 2-1.1 2.8s-1.7 1.2-2.9 1.2h-14.9z" fill="#eceeee"/></svg>
