<svg xmlns="http://www.w3.org/2000/svg" xmlns:xlink="http://www.w3.org/1999/xlink" width="169" height="24"><defs><path id="A" d="M0 0h307.2v307.2H0z"/></defs><clipPath id="B"><use xlink:href="#A"/></clipPath><g clip-path="url(#B)" transform="scale(.078125)"><defs><path id="C" d="M0 0h307.2v307.2H0z"/></defs><clipPath id="D"><use xlink:href="#C"/></clipPath><path d="M268.8 0H38.4C17.2 0 0 17.2 0 38.4v230.4c0 21.2 17.2 38.4 38.4 38.4h230.4c21.2 0 38.4-17.2 38.4-38.4V38.4C307.2 17.2 290 0 268.8 0h0" clip-path="url(#D)" fill="#2e3436"/><g fill="#eceeee"><path d="M219.5 268.8c9.5-3.4 18.2-8.5 25.9-15.1 4.1 9.2 13.3 15.1 23.4 15.1zM192 38.4h-76.8c-42.4 0-76.8 34.4-76.8 76.8v32.4C49 118.1 75.5 97.3 106.7 94c.5-14.9 2.4-29.6 5.7-44.1.4-1.9 1.9-3.3 3.8-3.6 2.6-.5 5.1 1.3 5.6 3.9 2.5 14.2 9 27.5 18.6 38.3 1.4 1.5 2.5 3.3 3.3 5.1h4.6c2-18 10.9-34.6 24.8-46.3 1.1-.9 2.5-1.3 3.9-1 2.6.5 4.4 3 3.9 5.6-2.5 14.2-1 28.9 4.4 42.3.3.8.6 1.6.8 2.4 16.5 6.5 27.4 22.4 27.4 40.2V162c0 13.2-10.7 24-24 24h-66c-1.3 0-2.4-1.1-2.4-2.4s1.1-2.4 2.4-2.4h66c10.6 0 19.2-8.6 19.2-19.2v-25.2c0-21.2-17.2-38.4-38.4-38.4h-55.2c-42.4 0-76.8 34.4-76.8 76.8V192c0 42.4 34.4 76.8 76.8 76.8H192c42.4 0 76.8-34.4 76.8-76.8v-76.8c0-42.4-34.4-76.8-76.8-76.8m-66 101.4c0-11.4 9.3-20.7 20.7-20.7s20.7 9.3 20.7 20.7h0c0 11.4-9.3 20.7-20.7 20.7-11.5 0-20.7-9.3-20.7-20.7z" clip-path="url(#D)"/></g><g fill="#8ae234"><path d="M136.9 91.6c-10.3-11.4-17.1-25.5-19.8-40.6-3.8 16.5-5.7 33.4-5.7 50.4 0 8.1 6.6 14.6 14.6 14.6 8.1 0 14.6-6.6 14.6-14.6 0-3.6-1.3-7.1-3.7-9.8m43.6 3.2c-5.4-13.9-6.8-29.1-4.2-43.8-12.8 10.7-21.1 26-23.1 42.6h17.2c3.4 0 6.8.4 10.1 1.2" clip-path="url(#D)"/></g></g><path d="M37.248 24c-1.188 0-2.174-.201-3-.604s-1.49-.926-1.993-1.55v1.027a.76.76 0 0 1-.242.564.76.76 0 0 1-.564.242h-3.644c-.242 0-.423-.081-.584-.242-.141-.161-.221-.342-.221-.564V1.611a.84.84 0 0 1 .221-.584c.141-.141.342-.221.584-.221h3.926a.84.84 0 0 1 .584.221c.141.141.221.342.221.584v6.886c.544-.564 1.188-1.007 1.973-1.369.765-.362 1.691-.523 2.738-.523 1.067 0 2.034.181 2.859.523.826.362 1.53.866 2.114 1.51.584.664 1.027 1.45 1.349 2.376s.503 1.973.544 3.101l.04 1.148-.04 1.148c-.04 1.208-.221 2.275-.544 3.201s-.785 1.732-1.369 2.376c-.584.664-1.289 1.148-2.114 1.49-.826.362-1.772.523-2.839.523zm-1.732-4.309c.725 0 1.309-.141 1.711-.443s.705-.705.886-1.228a6.45 6.45 0 0 0 .342-1.711 16.46 16.46 0 0 0 0-1.993c-.04-.624-.161-1.188-.342-1.711s-.483-.926-.886-1.228-.987-.443-1.711-.443c-.664 0-1.208.141-1.651.443-.423.282-.745.664-.966 1.128s-.342.966-.362 1.49l-.04 1.188.04 1.228a5.23 5.23 0 0 0 .362 1.611c.201.503.503.906.926 1.208.443.302 1.007.463 1.691.463zM52.349 24c-1.168 0-2.195-.221-3.101-.664s-1.631-1.027-2.174-1.792c-.544-.745-.805-1.591-.805-2.537 0-1.53.624-2.738 1.872-3.624s2.899-1.49 4.953-1.812l4.027-.604v-.443c0-.765-.161-1.369-.483-1.772s-.906-.604-1.772-.604c-.604 0-1.087.121-1.47.362a2.56 2.56 0 0 0-.886.966c-.201.282-.463.423-.805.423h-3.604c-.242 0-.423-.06-.544-.201s-.181-.302-.161-.503c0-.383.141-.825.443-1.329.282-.503.745-1.007 1.329-1.49.604-.503 1.369-.906 2.315-1.228s2.094-.483 3.443-.483c1.369 0 2.557.161 3.544.483s1.792.765 2.416 1.349 1.087 1.268 1.369 2.054.443 1.651.443 2.597v9.785a.76.76 0 0 1-.242.564.76.76 0 0 1-.564.242h-3.745c-.242 0-.423-.081-.584-.242-.141-.161-.221-.342-.221-.564v-1.128c-.282.403-.664.785-1.128 1.128s-1.027.624-1.651.826c-.624.141-1.369.242-2.215.242zm1.53-3.664c.624 0 1.188-.141 1.691-.403s.906-.685 1.188-1.248.443-1.289.443-2.134v-.443l-2.738.483c-1.007.181-1.752.443-2.215.785-.463.362-.685.765-.685 1.248 0 .362.101.685.322.926.221.262.503.463.846.604.342.101.725.181 1.148.181zM73.228 24c-1.389 0-2.577-.161-3.564-.463s-1.772-.685-2.376-1.148c-.604-.443-1.067-.926-1.369-1.409s-.463-.906-.483-1.268c-.02-.242.06-.423.221-.584.181-.141.362-.221.544-.221h3.664c.06 0 .121.02.181.04s.121.06.181.121c.282.141.564.342.846.564s.604.423.966.604.805.262 1.329.262c.604 0 1.107-.121 1.51-.362s.604-.604.604-1.047c0-.342-.101-.624-.282-.846s-.584-.443-1.168-.664-1.47-.423-2.658-.644c-1.107-.262-2.094-.604-2.94-1.007s-1.49-.966-1.933-1.651-.685-1.49-.685-2.456c0-.866.282-1.691.846-2.477s1.369-1.45 2.456-1.953c1.067-.503 2.396-.765 3.987-.765 1.228 0 2.295.141 3.221.443.926.282 1.691.664 2.315 1.107s1.087.906 1.409 1.389c.322.463.503.906.523 1.289a.66.66 0 0 1-.201.564c-.141.161-.322.242-.523.242H76.51c-.081 0-.181-.02-.262-.04-.081-.04-.161-.06-.221-.121-.262-.121-.523-.302-.765-.523-.262-.221-.564-.403-.906-.584s-.765-.262-1.289-.262c-.584 0-1.027.121-1.349.383a1.22 1.22 0 0 0-.483 1.007c0 .282.101.544.282.765.181.242.564.443 1.128.644s1.45.403 2.658.644c1.49.242 2.658.624 3.544 1.148s1.51 1.148 1.893 1.832a4.53 4.53 0 0 1 .564 2.215c0 1.027-.302 1.953-.926 2.738s-1.53 1.409-2.718 1.852c-1.228.423-2.678.644-4.43.644zm11.738-.322c-.242 0-.423-.081-.584-.242-.141-.161-.221-.342-.221-.564V1.611a.84.84 0 0 1 .221-.584c.141-.141.342-.221.584-.221h4.128a.84.84 0 0 1 .584.221c.141.141.221.342.221.584v7.188c.584-.664 1.289-1.188 2.134-1.591s1.832-.604 2.94-.604c1.248 0 2.356.282 3.342.846s1.752 1.369 2.295 2.456c.564 1.067.846 2.396.846 3.987v8.98c0 .221-.081.403-.221.564s-.342.242-.584.242h-4.148a.76.76 0 0 1-.564-.242.76.76 0 0 1-.242-.564v-8.799c0-1.007-.242-1.792-.725-2.336s-1.188-.826-2.114-.826c-.906 0-1.631.282-2.154.826-.544.544-.805 1.329-.805 2.336v8.799c0 .221-.081.403-.221.564s-.342.242-.584.242zm26.275.322c-1.228 0-2.315-.282-3.262-.846s-1.711-1.389-2.235-2.456c-.544-1.087-.805-2.416-.805-3.987v-8.98a.84.84 0 0 1 .221-.584c.141-.141.342-.221.584-.221h4.027a.89.89 0 0 1 .604.221c.161.141.242.342.242.584v8.799c0 2.114.926 3.161 2.799 3.161.886 0 1.591-.282 2.114-.826s.785-1.329.785-2.336V7.732a.84.84 0 0 1 .221-.584c.141-.141.342-.221.584-.221h4.027a.84.84 0 0 1 .584.221c.141.141.221.342.221.584v15.141c0 .221-.081.403-.221.564s-.342.242-.584.242h-3.745a.76.76 0 0 1-.564-.242.76.76 0 0 1-.242-.564v-1.228c-.564.765-1.289 1.349-2.174 1.752s-1.953.604-3.181.604zm15.302-.322c-.242 0-.423-.081-.584-.242-.141-.161-.221-.342-.221-.564V7.732a.84.84 0 0 1 .221-.584c.141-.141.342-.221.584-.221h3.705a.89.89 0 0 1 .604.221c.161.141.242.342.242.584V8.96c.544-.664 1.248-1.228 2.154-1.671s1.973-.685 3.181-.685c1.248 0 2.356.282 3.302.846s1.711 1.369 2.255 2.456c.544 1.067.826 2.396.826 3.987v8.98c0 .221-.081.403-.221.564s-.342.242-.584.242h-4.067a.76.76 0 0 1-.564-.242.76.76 0 0 1-.242-.564v-8.799c0-1.007-.242-1.792-.725-2.336s-1.188-.826-2.134-.826c-.886 0-1.591.282-2.114.826s-.785 1.329-.785 2.336v8.799a.76.76 0 0 1-.242.564.76.76 0 0 1-.564.242zM147.222 4.51a.84.84 0 0 1-.584-.221c-.141-.141-.221-.342-.221-.584V.805c0-.221.081-.403.221-.564s.342-.242.584-.242h3.866a.76.76 0 0 1 .564.242.76.76 0 0 1 .242.564v2.899c0 .242-.081.423-.242.584-.161.141-.342.221-.564.221zm.04 19.168c-.242 0-.423-.081-.584-.242-.141-.161-.221-.342-.221-.564V7.732a.84.84 0 0 1 .221-.584c.141-.141.342-.221.584-.221h3.805a.84.84 0 0 1 .584.221c.141.141.221.342.221.584v15.141c0 .221-.081.403-.221.564s-.342.242-.584.242zm16.973 0c-1.369 0-2.557-.221-3.564-.664a4.76 4.76 0 0 1-2.295-2.054c-.544-.926-.805-2.134-.805-3.624v-6.181h-2.517a.89.89 0 0 1-.604-.221c-.161-.141-.242-.342-.242-.584V7.732c0-.242.081-.423.242-.584a.89.89 0 0 1 .604-.221h2.517V1.611c0-.242.081-.423.242-.584.161-.141.342-.221.564-.221h3.745a.84.84 0 0 1 .584.221c.141.141.221.342.221.584v5.315h4.027a.89.89 0 0 1 .604.221c.161.141.242.342.242.584v2.617c0 .242-.081.423-.242.584a.89.89 0 0 1-.604.221h-4.027v5.738c0 .725.141 1.309.423 1.732s.745.644 1.409.644h2.477a.84.84 0 0 1 .584.221c.141.141.221.342.221.584v2.799c0 .221-.081.403-.221.564s-.342.242-.584.242z" fill="#eceeee"/></svg>
