<svg xmlns="http://www.w3.org/2000/svg" viewBox="0 0 362.8 362.8"><path d="M317.5 0H45.4C20.3 0 0 20.3 0 45.4v272.1c0 25 20.3 45.4 45.4 45.4h272.1c25 0 45.4-20.3 45.4-45.4V45.4C362.8 20.3 342.5 0 317.5 0z" fill="#2e3436"/><path d="M259.3 317.5c11.2-4 21.6-10.1 30.5-17.9 4.9 10.9 15.7 17.9 27.6 17.9h-58.1zM226.8 45.3h-90.7C86 45.3 45.3 86 45.3 136.1v38.3c12.5-34.8 43.9-59.4 80.7-63.3.6-17.5 2.8-35 6.8-52.1a5.68 5.68 0 0 1 4.5-4.3c3.1-.5 6 1.5 6.6 4.6 3 16.8 10.6 32.5 22 45.2 1.6 1.8 2.9 3.9 3.9 6.1h5.4c2.4-21.3 12.9-40.9 29.3-54.6 1.3-1.1 3-1.5 4.6-1.2 3.1.6 5.1 3.5 4.6 6.6-3 16.8-1.2 34.2 5.2 50 .4.9.7 1.9.9 2.9 19.5 7.7 32.3 26.5 32.3 47.5v29.8c0 15.6-12.7 28.3-28.3 28.3h-78c-1.6 0-2.8-1.3-2.8-2.8 0-1.6 1.3-2.8 2.8-2.8h78c12.5 0 22.7-10.2 22.7-22.7v-29.8c0-25-20.3-45.4-45.3-45.4H136c-50.1 0-90.7 40.6-90.7 90.7v19.8c0 50.1 40.6 90.7 90.7 90.7h90.7c50.1 0 90.7-40.6 90.7-90.7v-90.7c.1-50.2-40.5-90.9-90.6-90.9zm-78 119.8c0-13.5 11-24.4 24.5-24.4s24.4 11 24.4 24.5-11 24.4-24.5 24.4c-13.4 0-24.4-11-24.4-24.5z" fill="#eceeee"/><path d="M161.7 108.3c-12.1-13.5-20.2-30.1-23.4-48-4.5 19.5-6.8 39.5-6.8 59.6a17.31 17.31 0 0 0 17.3 17.3 17.31 17.31 0 0 0 17.3-17.3c0-4.4-1.6-8.5-4.4-11.6zm51.5 3.7c-6.3-16.5-8.1-34.3-5-51.7C193.1 73 183.3 91 181 110.6h20.3c4 0 8 .4 11.9 1.4z" fill="#8ae234"/></svg>
