<svg xmlns="http://www.w3.org/2000/svg" width="256" height="256" fill="none"><g clip-path="url(#A)"><path fill="#fad01f" d="M0 0h256v51.2H0z"/><path fill="#ea6810" d="M0 51.2h256v51.2H0z"/><path fill="#d90000" d="M0 102.4h256v51.2H0z"/><path fill="#7c1010" d="M0 153.6h256v51.2H0z"/><path fill="#1f1f1f" d="M0 204.8h256V256H0z"/><path d="M121.216 154.944V218h-17.024v-63.056H83.024v-15.12h59.36v15.12h-21.168zm32.814-15.12h29.456c5.152 0 9.856.821 14.112 2.464s7.878 4.107 10.864 7.392c2.987 3.211 5.302 7.28 6.944 12.208 1.643 4.853 2.464 10.528 2.464 17.024s-.821 12.208-2.464 17.136c-1.642 4.853-3.957 8.923-6.944 12.208-2.986 3.211-6.608 5.637-10.864 7.28S188.638 218 183.486 218H154.03v-78.176zm29.456 63.056c5.078 0 9.072-1.419 11.984-4.256s4.368-7.392 4.368-13.664v-12.096c0-6.272-1.456-10.827-4.368-13.664s-6.906-4.256-11.984-4.256h-12.432v47.936h12.432z" fill="#fff"/></g><defs><clipPath id="A"><path fill="#fff" d="M0 0h256v256H0z"/></clipPath></defs></svg>