<svg xmlns="http://www.w3.org/2000/svg" viewBox="0 0 362.8 362.8"><path d="M317.5 0H45.4C20.3 0 0 20.3 0 45.4h0v272.1c0 25 20.3 45.4 45.4 45.4h0 272.1c25 0 45.4-20.3 45.4-45.4V45.4C362.8 20.3 342.5 0 317.5 0z" fill="#2e3436"/><path d="M259.3 317.5h58.1c-11.9 0-22.7-7-27.6-17.9-8.9 7.8-19.3 13.9-30.5 17.9zM226.8 45.3h-90.7C86 45.3 45.3 86 45.3 136.1v38.3c12.5-34.8 43.9-59.4 80.7-63.3.6-17.5 2.8-35 6.8-52.1.7-3 3.8-4.9 6.8-4.2a5.68 5.68 0 0 1 4.3 4.5c3 16.8 10.6 32.5 22 45.2 1.6 1.8 2.9 3.9 3.9 6.1h5.4c2.4-21.3 12.9-40.9 29.3-54.6 2.4-2 6-1.7 8 .7 1.1 1.3 1.5 3 1.2 4.6-3 16.8-1.2 34.2 5.2 50 .4.9.7 1.9.9 2.9 19.5 7.7 32.3 26.5 32.3 47.5v29.8c0 15.6-12.7 28.3-28.3 28.3h-78c-1.6 0-2.8-1.3-2.8-2.8 0-1.6 1.3-2.8 2.8-2.8h78c12.5 0 22.7-10.2 22.7-22.7v-29.8c0-25-20.3-45.4-45.3-45.4h-35.5c2 9.3-4 18.5-13.3 20.5s-18.5-4-20.5-13.3c-.2-1.2-.4-2.4-.4-3.6v-3.5c-48.3 2.4-86.2 42.2-86.2 90.6v19.8c0 50.1 40.6 90.7 90.7 90.7h90.7c50.1 0 90.7-40.6 90.7-90.7v-90.7c.1-50.1-40.5-90.8-90.6-90.8zm-53.5 95.4c13.5 0 24.4 11 24.4 24.5s-10.9 24.5-24.4 24.5-24.5-11-24.5-24.5 11-24.5 24.5-24.5z" fill="#eeeeec"/><path d="M181 110.6h20.3c4 0 8 .5 12 1.4-6.3-16.5-8.1-34.3-5-51.7a76.91 76.91 0 0 0-27.3 50.3zm-42.7-50.4c-4.2 18.4-6.5 37.2-6.8 56.1v3.5a17.31 17.31 0 0 0 17.3 17.3 17.31 17.31 0 0 0 17.3-17.3c0-1.2-.1-2.4-.4-3.6-.6-3-2-5.7-4-8-12.1-13.5-20.2-30.1-23.4-48z" fill="#8ae234"/></svg>