<svg xmlns="http://www.w3.org/2000/svg" viewBox="0 0 1043.1 308.69"><defs><clipPath id="A"><path d="M0 0h307.16v307.16H0z" fill="none"/></clipPath><clipPath id="B"><path d="M0 0h307.16v307.16H0z" fill="none"/></clipPath></defs><g clip-path="url(#A)"><g clip-path="url(#B)"><path d="M268.77 0H38.4C17.19 0 0 17.19 0 38.4v230.37c0 21.2 17.19 38.39 38.4 38.39h230.37c21.21 0 38.39-17.19 38.39-38.4V38.4c0-21.21-17.19-38.4-38.39-38.4h0z" fill="#2e3436"/><g fill="#eeeeec"><path d="M219.55 268.77h49.22c-10.09 0-19.23-5.92-23.36-15.13-7.61 6.6-16.38 11.73-25.86 15.13M113.91 98.34c-40.87 2.04-75.51 35.91-75.51 76.84v16.8c0 42.41 34.39 76.79 76.79 76.79h76.79c42.41 0 76.79-34.38 76.79-76.79v-76.79c0-42.4-34.38-76.79-76.79-76.79h-76.79c-42.4 0-76.79 34.39-76.79 76.79v32.42c10.59-29.49 37.12-50.3 68.27-53.57.48-14.86 2.4-29.63 5.75-44.11a4.81 4.81 0 0 1 5.76-3.6c1.88.44 3.32 1.95 3.65 3.84 2.51 14.25 8.97 27.5 18.62 38.27 1.38 1.52 2.5 3.27 3.33 5.15h4.61a70.56 70.56 0 0 1 24.81-46.26c2.03-1.7 5.05-1.43 6.76.6.91 1.08 1.3 2.51 1.05 3.91a77.45 77.45 0 0 0 4.42 42.34c.31.79.58 1.6.79 2.42a43.18 43.18 0 0 1 27.37 40.19v25.2c0 13.25-10.74 24-23.99 24h-66a2.41 2.41 0 0 1-2.4-2.4 2.41 2.41 0 0 1 2.4-2.4h66a19.2 19.2 0 0 0 19.19-19.2v-25.2c0-21.2-17.19-38.39-38.39-38.39l-56.47-.05zm32.78 20.74c11.43 0 20.7 9.27 20.7 20.7s-9.27 20.7-20.7 20.7-20.7-9.27-20.7-20.7 9.27-20.7 20.7-20.7"/></g><g fill="#8ae234"><path d="M153.21 93.59h17.17a43.09 43.09 0 0 1 10.12 1.2A82.27 82.27 0 0 1 176.27 51c-12.82 10.75-21.07 25.97-23.06 42.59M117.09 51a223.91 223.91 0 0 0-5.73 47.48l-.02 2.94c0 8.08 6.55 14.64 14.64 14.64s14.64-6.55 14.64-14.64c0-1.02-.11-2.04-.32-3.03-.53-2.51-1.71-4.84-3.43-6.74a82.23 82.23 0 0 1-19.78-40.64"/></g></g></g><path d="M393.51 308.69c-5.87 0-10.83-1.02-14.88-3.04-4.06-2.03-7.36-4.58-9.92-7.68v5.12c0 1.07-.4 2-1.2 2.8s-1.73 1.2-2.8 1.2h-18.08c-1.17 0-2.13-.4-2.88-1.2s-1.12-1.73-1.12-2.8v-105.6c0-1.17.37-2.13 1.12-2.88s1.71-1.12 2.88-1.12h19.52c1.17 0 2.13.38 2.88 1.12.75.75 1.12 1.71 1.12 2.88v34.24c2.67-2.77 5.92-5.04 9.76-6.8s8.37-2.64 13.6-2.64 10.05.88 14.16 2.64c4.1 1.76 7.6 4.27 10.48 7.52s5.12 7.2 6.72 11.84 2.5 9.79 2.72 15.44c.1 2.13.16 4.03.16 5.68s-.06 3.55-.16 5.68c-.21 5.98-1.12 11.28-2.72 15.92s-3.87 8.59-6.8 11.84a28.32 28.32 0 0 1-10.48 7.36c-4.05 1.65-8.75 2.48-14.08 2.48zm-8.64-21.44c3.62 0 6.45-.75 8.48-2.24 2.02-1.49 3.49-3.52 4.4-6.08.9-2.56 1.46-5.38 1.68-8.48a78.18 78.18 0 0 0 0-9.92c-.22-3.09-.78-5.92-1.68-8.48-.91-2.56-2.38-4.58-4.4-6.08-2.03-1.49-4.85-2.24-8.48-2.24-3.31 0-6.03.72-8.16 2.16-2.14 1.44-3.73 3.31-4.8 5.6s-1.66 4.77-1.76 7.44a109.27 109.27 0 0 0-.16 5.92c0 1.92.05 3.95.16 6.08.21 2.88.8 5.55 1.76 8 .96 2.46 2.5 4.46 4.64 6 2.13 1.55 4.91 2.32 8.32 2.32zm83.68 21.44c-5.76 0-10.91-1.1-15.44-3.28-4.54-2.19-8.13-5.15-10.8-8.88s-4-7.95-4-12.64c0-7.57 3.09-13.57 9.28-18 6.19-4.42 14.4-7.44 24.64-9.04l20-3.04v-2.24c0-3.84-.8-6.77-2.4-8.8s-4.54-3.04-8.8-3.04c-2.99 0-5.42.59-7.28 1.76-1.87 1.17-3.33 2.77-4.4 4.8-.96 1.39-2.3 2.08-4 2.08h-17.92c-1.17 0-2.08-.34-2.72-1.04-.64-.69-.91-1.52-.8-2.48 0-1.92.72-4.13 2.16-6.64 1.44-2.5 3.65-4.99 6.64-7.44 2.98-2.45 6.82-4.48 11.52-6.08 4.69-1.6 10.4-2.4 17.12-2.4s12.69.8 17.6 2.4 8.91 3.84 12 6.72 5.36 6.27 6.8 10.16 2.16 8.19 2.16 12.88v48.64c0 1.07-.4 2-1.2 2.8s-1.73 1.2-2.8 1.2h-18.56c-1.18 0-2.14-.4-2.88-1.2-.75-.8-1.12-1.73-1.12-2.8v-5.6c-1.39 2.03-3.26 3.89-5.6 5.6-2.35 1.71-5.1 3.07-8.24 4.08-3.15 1.01-6.8 1.52-10.96 1.52zm7.52-18.24c3.09 0 5.89-.67 8.4-2s4.48-3.41 5.92-6.24 2.16-6.37 2.16-10.64v-2.24l-13.6 2.4c-5.01.85-8.67 2.16-10.96 3.92s-3.44 3.81-3.44 6.16c0 1.81.53 3.36 1.6 4.64 1.06 1.28 2.48 2.27 4.24 2.96 1.76.7 3.65 1.04 5.68 1.04zm96.16 18.24c-6.93 0-12.83-.78-17.68-2.32-4.86-1.54-8.8-3.44-11.84-5.68s-5.31-4.56-6.8-6.96-2.29-4.51-2.4-6.32c-.11-1.17.26-2.13 1.12-2.88.85-.75 1.76-1.12 2.72-1.12h18.24c.32 0 .61.05.88.16.26.11.56.32.88.64 1.38.75 2.77 1.68 4.16 2.8 1.38 1.12 2.98 2.11 4.8 2.96 1.81.86 4 1.28 6.56 1.28 2.99 0 5.49-.61 7.52-1.84 2.03-1.22 3.04-2.96 3.04-5.2 0-1.71-.48-3.12-1.44-4.24s-2.91-2.21-5.84-3.28-7.33-2.13-13.2-3.2c-5.55-1.28-10.4-2.96-14.56-5.04s-7.36-4.8-9.6-8.16-3.36-7.44-3.36-12.24c0-4.26 1.38-8.37 4.16-12.32 2.77-3.95 6.83-7.17 12.16-9.68 5.33-2.5 11.94-3.76 19.84-3.76 6.08 0 11.41.72 16 2.16 4.58 1.44 8.42 3.28 11.52 5.52 3.09 2.24 5.44 4.54 7.04 6.88 1.6 2.35 2.45 4.48 2.56 6.4.1 1.07-.22 2-.96 2.8-.75.8-1.6 1.2-2.56 1.2h-16.64c-.43 0-.86-.08-1.28-.24-.43-.16-.8-.34-1.12-.56-1.28-.64-2.56-1.49-3.84-2.56-1.28-1.06-2.78-2.02-4.48-2.88-1.71-.85-3.84-1.28-6.4-1.28-2.88 0-5.12.64-6.72 1.92s-2.4 2.93-2.4 4.96c0 1.39.45 2.67 1.36 3.84.9 1.17 2.77 2.24 5.6 3.2s7.22 2.03 13.2 3.2c7.36 1.18 13.22 3.07 17.6 5.68 4.37 2.62 7.49 5.66 9.36 9.12 1.87 3.47 2.8 7.12 2.8 10.96 0 5.12-1.55 9.65-4.64 13.6-3.1 3.95-7.6 7.01-13.52 9.2-5.92 2.18-13.2 3.28-21.84 3.28zm58.24-1.6c-1.17 0-2.13-.4-2.88-1.2s-1.12-1.73-1.12-2.8v-105.6c0-1.17.37-2.13 1.12-2.88s1.71-1.12 2.88-1.12h20.48c1.17 0 2.13.38 2.88 1.12.75.75 1.12 1.71 1.12 2.88v35.68c2.88-3.3 6.43-5.95 10.64-7.92s9.09-2.96 14.64-2.96c6.18 0 11.71 1.39 16.56 4.16s8.67 6.83 11.44 12.16 4.16 11.95 4.16 19.84v44.64c0 1.07-.38 2-1.12 2.8-.75.8-1.71 1.2-2.88 1.2h-20.64c-1.07 0-2-.4-2.8-1.2s-1.2-1.73-1.2-2.8v-43.68c0-5.01-1.2-8.88-3.6-11.6s-5.89-4.08-10.48-4.08-8.06 1.36-10.72 4.08c-2.67 2.72-4 6.59-4 11.6v43.68c0 1.07-.38 2-1.12 2.8-.75.8-1.71 1.2-2.88 1.2h-20.48zm130.55 1.6c-6.08 0-11.5-1.39-16.24-4.16-4.75-2.77-8.46-6.85-11.12-12.24-2.67-5.38-4-11.97-4-19.76v-44.64c0-1.17.37-2.13 1.12-2.88s1.71-1.12 2.88-1.12h20c1.17 0 2.16.38 2.96 1.12.8.75 1.2 1.71 1.2 2.88v43.68c0 10.46 4.64 15.68 13.92 15.68 4.37 0 7.87-1.36 10.48-4.08s3.92-6.58 3.92-11.6v-43.68c0-1.17.37-2.13 1.12-2.88s1.71-1.12 2.88-1.12h20c1.17 0 2.13.38 2.88 1.12.75.75 1.12 1.71 1.12 2.88v75.2c0 1.07-.38 2-1.12 2.8-.75.8-1.71 1.2-2.88 1.2h-18.56c-1.07 0-2-.4-2.8-1.2s-1.2-1.73-1.2-2.8v-6.08c-2.77 3.84-6.38 6.75-10.8 8.72-4.43 1.97-9.68 2.96-15.76 2.96zm76-1.6c-1.18 0-2.14-.4-2.88-1.2-.75-.8-1.12-1.73-1.12-2.8v-75.2c0-1.17.37-2.13 1.12-2.88s1.71-1.12 2.88-1.12h18.4c1.17 0 2.16.38 2.96 1.12.8.75 1.2 1.71 1.2 2.88v6.08c2.67-3.3 6.24-6.08 10.72-8.32s9.76-3.36 15.84-3.36 11.65 1.39 16.4 4.16 8.48 6.83 11.2 12.16 4.08 11.95 4.08 19.84v44.64c0 1.07-.38 2-1.12 2.8-.75.8-1.71 1.2-2.88 1.2h-20.16c-1.07 0-2-.4-2.8-1.2s-1.2-1.73-1.2-2.8v-43.68c0-5.01-1.2-8.88-3.6-11.6s-5.95-4.08-10.64-4.08c-4.38 0-7.87 1.36-10.48 4.08-2.62 2.72-3.92 6.59-3.92 11.6v43.68c0 1.07-.4 2-1.2 2.8s-1.74 1.2-2.8 1.2h-20zm102.72-95.2c-1.17 0-2.14-.37-2.88-1.12-.75-.75-1.12-1.71-1.12-2.88v-14.4c0-1.07.37-2 1.12-2.8.74-.8 1.71-1.2 2.88-1.2h19.2c1.06 0 2 .4 2.8 1.2s1.2 1.73 1.2 2.8v14.4c0 1.18-.4 2.14-1.2 2.88a3.97 3.97 0 0 1-2.8 1.12h-19.2zm.16 95.2c-1.18 0-2.14-.4-2.88-1.2-.75-.8-1.12-1.73-1.12-2.8v-75.2c0-1.17.37-2.13 1.12-2.88s1.71-1.12 2.88-1.12h18.88c1.17 0 2.13.38 2.88 1.12.75.75 1.12 1.71 1.12 2.88v75.2c0 1.07-.38 2-1.12 2.8-.75.8-1.71 1.2-2.88 1.2H939.9zm84.32 0c-6.83 0-12.72-1.09-17.68-3.28s-8.78-5.6-11.44-10.24c-2.67-4.64-4-10.64-4-18v-30.72h-12.48c-1.18 0-2.16-.37-2.96-1.12s-1.2-1.71-1.2-2.88v-12.96c0-1.17.4-2.13 1.2-2.88s1.78-1.12 2.96-1.12h12.48v-26.4c0-1.17.4-2.13 1.2-2.88s1.73-1.12 2.8-1.12h18.56c1.17 0 2.13.38 2.88 1.12.75.75 1.12 1.71 1.12 2.88v26.4h20c1.17 0 2.16.38 2.96 1.12.8.75 1.2 1.71 1.2 2.88v12.96c0 1.18-.4 2.14-1.2 2.88-.8.75-1.79 1.12-2.96 1.12h-20v28.48c0 3.63.69 6.51 2.08 8.64 1.39 2.14 3.73 3.2 7.04 3.2h12.32c1.17 0 2.13.38 2.88 1.12.75.75 1.12 1.71 1.12 2.88v13.92c0 1.07-.38 2-1.12 2.8-.75.8-1.71 1.2-2.88 1.2h-14.88z" fill="#2e3436"/></svg>
