<svg xmlns="http://www.w3.org/2000/svg" viewBox="0 0 362.83 362.83"><path d="M317.48 0H45.35C20.31 0 0 20.31 0 45.35h0v272.13c0 25.05 20.31 45.35 45.35 45.35h272.13c25.05 0 45.35-20.31 45.35-45.35V45.35C362.83 20.3 342.52 0 317.48 0h0z" fill="#2e3436"/><path d="M259.34 317.48h58.14a30.23 30.23 0 0 1-27.59-17.87c-8.99 7.79-19.35 13.85-30.55 17.87zM226.77 45.35h-90.71c-50.09 0-90.71 40.62-90.71 90.71v38.3c12.51-34.83 43.85-59.42 80.65-63.28.57-17.55 2.84-35 6.79-52.11a5.68 5.68 0 0 1 6.8-4.25c2.22.52 3.92 2.3 4.31 4.54 2.97 16.83 10.59 32.49 22 45.21a22.72 22.72 0 0 1 3.93 6.08h5.44c2.38-21.3 12.88-40.88 29.31-54.65 2.4-2.01 5.97-1.69 7.98.71a5.64 5.64 0 0 1 1.24 4.62c-2.97 16.83-1.16 34.15 5.22 50.01a23.86 23.86 0 0 1 .93 2.86c19.51 7.68 32.33 26.51 32.33 47.47v29.77c0 15.65-12.69 28.35-28.34 28.35h-77.96a2.85 2.85 0 0 1-2.83-2.84c0-1.56 1.27-2.83 2.83-2.83h77.96c12.52 0 22.67-10.16 22.67-22.68v-29.77c0-25.04-20.3-45.35-45.35-45.35h-35.53c1.98 9.34-3.99 18.52-13.33 20.49-9.34 1.98-18.52-3.99-20.49-13.33a17.28 17.28 0 0 1-.38-3.58l.02-3.47c-48.28 2.41-86.2 42.25-86.2 90.6v19.84c0 50.1 40.62 90.71 90.71 90.71h90.71c50.1 0 90.71-40.61 90.71-90.71v-90.71c0-50.09-40.61-90.71-90.71-90.71zm-53.5 95.32c13.5 0 24.45 10.95 24.45 24.45s-10.95 24.45-24.45 24.45-24.45-10.95-24.45-24.45 10.95-24.45 24.45-24.45z" fill="#eeeeec"/><path d="M180.98 110.55h20.28a51.12 51.12 0 0 1 11.95 1.42c-6.33-16.47-8.06-34.35-5-51.72a77.75 77.75 0 0 0-27.24 50.3zm-42.66-50.3c-4.25 18.4-6.52 37.2-6.76 56.09l-.02 3.47c0 9.55 7.74 17.29 17.29 17.29s17.29-7.74 17.29-17.29c0-1.2-.13-2.4-.37-3.58-.63-2.96-2.02-5.71-4.05-7.97a97.12 97.12 0 0 1-23.37-48.01z" fill="#8ae234"/></svg>